<?xml version="1.0" encoding="UTF-8"?>
<!-- Generator: visioncortex VTracer 0.6.12 -->
<svg version="1.1" xmlns="http://www.w3.org/2000/svg" width="569" height="577">
<path d="M0 0 C3.81000569 3.4026398 7.53076585 6.89294557 11.21386719 10.43212891 C11.45806396 10.66536865 11.45806396 10.66536865 12.69384766 11.84570312 C19.42619071 18.30667192 25.47535334 25.08167297 31.21386719 32.43212891 C31.45484131 32.73489746 31.45484131 32.73489746 32.67431641 34.26708984 C79.11798579 92.65093599 100.30950298 168.00759275 91.90136719 242.18603516 C86.06840696 288.37231696 70.43671976 333.40221425 43.21386719 371.43212891 C42.47652344 372.46337891 41.73917969 373.49462891 40.97949219 374.55712891 C-0.82803633 431.48652944 -62.28222154 471.16541659 -132.43066406 482.35791016 C-143.51665678 484.0217133 -154.583888 485.07329824 -165.78613281 485.43212891 C-166.35267578 485.45275391 -166.35267578 485.45275391 -169.21972656 485.55712891 C-232.13798898 486.69979883 -293.53238867 464.61957552 -341.78613281 424.43212891 C-342.31174805 423.99674805 -342.83736328 423.56136719 -343.37890625 423.11279297 C-354.75552954 413.65715114 -365.38001536 403.80623226 -374.58691406 392.18603516 C-376.85381122 389.34738064 -379.2219047 386.61665806 -381.59863281 383.86962891 C-413.22549684 345.83918036 -431.13279859 297.77581752 -438.78613281 249.43212891 C-438.92035645 248.6002002 -439.05458008 247.76827148 -439.19287109 246.91113281 C-445.58537308 205.07665776 -440.05644066 160.32537447 -426.78613281 120.43212891 C-426.53669922 119.6719043 -426.28726562 118.91167969 -426.03027344 118.12841797 C-409.68493777 69.02938267 -376.69825154 20.20394353 -334.46630859 -10.34521484 C-332.66640163 -11.65499893 -330.89584188 -12.99905834 -329.12597656 -14.34912109 C-320.69623829 -20.73220039 -312.01925338 -26.41890485 -302.78613281 -31.56787109 C-301.9561377 -32.03338379 -301.12614258 -32.49889648 -300.27099609 -32.97851562 C-209.24891099 -83.53536557 -93.41543191 -74.69321731 0 0 Z " fill="#FDFDFD" transform="translate(457.7861328125,75.56787109375)"/>
<path d="M0 0 C9.1539496 -0.54104814 17.28714253 2.81421541 24.3203125 8.60546875 C29.91461216 13.95603336 33.30995038 20.55412744 34.15625 28.30859375 C34.30510626 40.39572233 31.23874192 47.2940385 23.13671875 56.19921875 C20.76391193 58.27992625 18.80214617 59.26281902 15.8203125 60.23046875 C16.75986704 80.71275762 22.46182147 101.58291658 30.8203125 120.23046875 C31.45303751 121.71172135 32.08443996 123.19353928 32.71484375 124.67578125 C36.6027808 133.69935749 40.84482457 142.43263968 45.6953125 150.98046875 C46.14011963 151.76993896 46.58492676 152.55940918 47.04321289 153.37280273 C47.9817072 154.99129869 48.97116802 156.58117368 50.00598145 158.1398468 C51.45209001 160.60322021 52.3152116 162.55531551 53.23484802 165.20037842 C55.38658881 170.39248841 57.93331509 174.28483827 62.8203125 177.23046875 C74.01800271 180.19762178 86.17678462 179.27474888 97.65780425 179.05470085 C102.30890151 178.98247701 106.95963871 179.00139602 111.61116028 179.01037598 C120.4057216 179.01364364 129.19758733 178.93572825 137.99141532 178.82815599 C148.00833616 178.70961072 158.02486823 178.6823015 168.042395 178.66240406 C188.63620051 178.61946827 209.22782919 178.46277464 229.8203125 178.23046875 C229.18105013 179.83962171 228.54070641 181.44834512 227.89990234 183.05688477 C227.54342621 183.95278824 227.18695007 184.84869171 226.81967163 185.77174377 C219.24072528 204.41823843 207.58726668 223.2372627 194.28759766 238.39868164 C192.8203125 240.23046875 192.8203125 240.23046875 191.20849609 243.01342773 C188.14093852 247.51297266 185.56362778 250.58652493 180.20489502 251.84439087 C172.3936358 252.8007259 164.5474301 252.5705358 156.6953125 252.41796875 C154.28386343 252.41100393 151.87239462 252.40900183 149.4609375 252.41210938 C143.57928246 252.40893501 137.70081958 252.34392291 131.8203125 252.23046875 C133.27996219 255.30219242 134.5617479 257.12055576 137.1953125 259.29296875 C141.51111441 262.93442661 145.65444692 266.73537498 149.78271484 270.58618164 C153.60541487 274.12301994 153.60541487 274.12301994 155.8203125 275.23046875 C154.46205409 278.40980586 153.11331379 280.05469205 150.29296875 282.03515625 C149.587771 282.53370117 148.88257324 283.03224609 148.15600586 283.54589844 C147.40585205 284.06055664 146.65569824 284.57521484 145.8828125 285.10546875 C145.12170166 285.6355957 144.36059082 286.16572266 143.57641602 286.71191406 C137.85795063 290.6438499 132.05232191 294.16157426 125.8203125 297.23046875 C120.56255646 292.09562129 115.58264755 286.82597574 110.8203125 281.23046875 C109.99660156 280.27269531 109.17289062 279.31492187 108.32421875 278.328125 C102.83459085 271.9176308 97.51787105 265.39612818 92.34863281 258.72412109 C90.58466266 256.45063242 88.8575155 254.26767175 86.8203125 252.23046875 C84.23967121 252.0854889 81.77087366 252.0436933 79.1953125 252.10546875 C78.48890625 252.11449219 77.7825 252.12351562 77.0546875 252.1328125 C75.30975152 252.15639272 73.56498955 252.19226414 71.8203125 252.23046875 C73.43960784 256.83923241 75.84901871 260.75149234 78.4453125 264.85546875 C78.89261719 265.56622559 79.33992188 266.27698242 79.80078125 267.00927734 C83.56606154 272.93744834 87.62756592 278.59794882 91.8203125 284.23046875 C93.5393896 286.59781271 95.2441459 288.97523043 96.9453125 291.35546875 C97.3686084 291.9474707 97.7919043 292.53947266 98.22802734 293.14941406 C101.52479172 297.77803515 104.72047183 302.46729894 107.8203125 307.23046875 C87.01063334 317.10981138 65.99287799 323.77890626 43.30200195 327.78491211 C41.71650199 328.06956901 40.13635227 328.38727822 38.5662384 328.74725342 C35.46885291 329.29231698 32.54914629 329.37987011 29.40380859 329.4074707 C28.12412201 329.42030594 26.84443542 329.43314117 25.52597046 329.44636536 C24.13190099 329.45454337 22.73782704 329.46198505 21.34375 329.46875 C20.98830927 329.47078776 20.98830927 329.47078776 19.18956375 329.48110008 C15.41348823 329.50193929 11.63744862 329.51624008 7.86132812 329.52563477 C4.77551093 329.53442489 1.69015435 329.55513338 -1.39550781 329.5871582 C-18.1000415 329.756916 -33.94971925 329.74076627 -50.1796875 325.23046875 C-52.30183351 324.77932847 -54.42636392 324.33900316 -56.5546875 323.91796875 C-72.41764944 320.16890786 -87.46479929 314.14772389 -102.1796875 307.23046875 C-100.90713447 304.54751195 -99.51927901 302.18994705 -97.73828125 299.81640625 C-97.24513428 299.15036377 -96.7519873 298.48432129 -96.24389648 297.7980957 C-95.70708252 297.07452881 -95.17026855 296.35096191 -94.6171875 295.60546875 C-88.86257924 287.74880356 -83.43765978 279.69648708 -78.1171875 271.54296875 C-77.75051971 270.98252869 -77.38385193 270.42208862 -77.006073 269.84466553 C-73.22732892 264.06216884 -69.51302737 258.28242867 -66.1796875 252.23046875 C-68.57808667 252.29080584 -70.970526 252.37791393 -73.3671875 252.48046875 C-74.04072266 252.49464844 -74.71425781 252.50882813 -75.40820312 252.5234375 C-80.28499358 252.76132972 -82.7408904 253.80363268 -86.1796875 257.23046875 C-87.47770789 258.71052858 -88.72766645 260.23393718 -89.9296875 261.79296875 C-90.61675781 262.67082031 -91.30382812 263.54867188 -92.01171875 264.453125 C-92.72714844 265.36964844 -93.44257813 266.28617187 -94.1796875 267.23046875 C-99.28725981 273.60813008 -104.52658509 279.81724115 -110.02734375 285.859375 C-113.12690017 289.27394986 -116.15546535 292.74920982 -119.1796875 296.23046875 C-124.03261168 295.72206717 -127.44859547 293.36938083 -131.3671875 290.66796875 C-131.69529419 290.44568604 -131.69529419 290.44568604 -133.35571289 289.32080078 C-138.85255077 285.55403799 -144.08193491 281.52457563 -149.1796875 277.23046875 C-147.57829984 273.00038813 -144.40391912 270.41725024 -141.1171875 267.48046875 C-140.82763184 267.2172583 -140.82763184 267.2172583 -139.36230469 265.88525391 C-135.21541747 262.12505761 -131.02285417 258.41598153 -126.7890625 254.75390625 C-125.1796875 253.23046875 -125.1796875 253.23046875 -124.1796875 251.23046875 C-124.49835785 251.24601303 -124.49835785 251.24601303 -126.11102295 251.32467651 C-132.79440373 251.63640109 -139.47569966 251.84631856 -146.16455078 251.99951172 C-148.65401151 252.06956917 -151.14290326 252.16485693 -153.63037109 252.28662109 C-175.41010069 253.32541381 -175.41010069 253.32541381 -181.33642578 248.34619141 C-184.05538912 245.48090212 -186.18577259 242.35264627 -188.16821289 238.94476318 C-189.48283252 236.71668441 -191.06506384 234.76755781 -192.703125 232.76953125 C-193.66329132 231.47192577 -194.61389931 230.16719163 -195.5546875 228.85546875 C-196.0801416 228.12416748 -196.6055957 227.39286621 -197.14697266 226.6394043 C-223.1796875 189.60700479 -223.1796875 189.60700479 -223.1796875 178.23046875 C-222.33669601 178.23545474 -221.49370453 178.24044073 -220.62516785 178.24557781 C-200.10142312 178.363181 -179.57829332 178.41995453 -159.05419922 178.40925121 C-149.12872811 178.40553783 -139.20408579 178.42231653 -129.27880859 178.48754883 C-120.62656071 178.54436213 -111.97523733 178.56251053 -103.32283306 178.53447515 C-98.74214231 178.52097675 -94.16330937 178.52667218 -89.58285522 178.5786953 C-85.26781186 178.62709247 -80.95586195 178.62363844 -76.64078712 178.58105469 C-75.06057895 178.57448162 -73.48016126 178.58657429 -71.90027428 178.61910439 C-59.9951284 178.84857353 -59.9951284 178.84857353 -55.51580811 174.85614967 C-53.45056049 172.06370438 -51.78504452 169.30592178 -50.1796875 166.23046875 C-49.21872951 164.6696549 -48.25147891 163.11266617 -47.2734375 161.5625 C-46.40087407 160.06059753 -45.53635593 158.55399396 -44.6796875 157.04296875 C-44.21393311 156.22763672 -43.74817871 155.41230469 -43.26831055 154.57226562 C-29.29560588 129.88771433 -18.75681371 104.07879459 -13.1796875 76.23046875 C-12.87645866 74.74215559 -12.57307509 73.25387395 -12.26953125 71.765625 C-11.55840046 68.25670826 -10.86388353 64.74474838 -10.1796875 61.23046875 C-10.9221875 60.96234375 -11.6646875 60.69421875 -12.4296875 60.41796875 C-20.67667139 56.85677116 -24.89209338 50.30130068 -28.1796875 42.23046875 C-30.62324409 34.89979897 -30.12074824 25.45457831 -27.29296875 18.2578125 C-23.07619633 10.57884799 -16.17105644 4.65534115 -8.1796875 1.23046875 C-5.44542076 0.54690207 -2.79570954 0.2956037 0 0 Z " fill="#D6D6D6" transform="translate(281.1796875,211.76953125)"/>
<path d="M0 0 C3.81000569 3.4026398 7.53076585 6.89294557 11.21386719 10.43212891 C11.45806396 10.66536865 11.45806396 10.66536865 12.69384766 11.84570312 C19.42619071 18.30667192 25.47535334 25.08167297 31.21386719 32.43212891 C31.45484131 32.73489746 31.45484131 32.73489746 32.67431641 34.26708984 C79.11798579 92.65093599 100.30950298 168.00759275 91.90136719 242.18603516 C86.06840696 288.37231696 70.43671976 333.40221425 43.21386719 371.43212891 C42.47652344 372.46337891 41.73917969 373.49462891 40.97949219 374.55712891 C-0.82803633 431.48652944 -62.28222154 471.16541659 -132.43066406 482.35791016 C-143.51665678 484.0217133 -154.583888 485.07329824 -165.78613281 485.43212891 C-166.35267578 485.45275391 -166.35267578 485.45275391 -169.21972656 485.55712891 C-232.13798898 486.69979883 -293.53238867 464.61957552 -341.78613281 424.43212891 C-342.31174805 423.99674805 -342.83736328 423.56136719 -343.37890625 423.11279297 C-354.75552954 413.65715114 -365.38001536 403.80623226 -374.58691406 392.18603516 C-376.85381122 389.34738064 -379.2219047 386.61665806 -381.59863281 383.86962891 C-413.22549684 345.83918036 -431.13279859 297.77581752 -438.78613281 249.43212891 C-438.92035645 248.6002002 -439.05458008 247.76827148 -439.19287109 246.91113281 C-445.58537308 205.07665776 -440.05644066 160.32537447 -426.78613281 120.43212891 C-426.53669922 119.6719043 -426.28726562 118.91167969 -426.03027344 118.12841797 C-409.68493777 69.02938267 -376.69825154 20.20394353 -334.46630859 -10.34521484 C-332.66640163 -11.65499893 -330.89584188 -12.99905834 -329.12597656 -14.34912109 C-320.69623829 -20.73220039 -312.01925338 -26.41890485 -302.78613281 -31.56787109 C-301.9561377 -32.03338379 -301.12614258 -32.49889648 -300.27099609 -32.97851562 C-209.24891099 -83.53536557 -93.41543191 -74.69321731 0 0 Z M-232.78613281 -43.56787109 C-233.95402344 -43.31005859 -235.12191406 -43.05224609 -236.32519531 -42.78662109 C-275.45453444 -33.73189799 -311.98789668 -12.38618706 -341.12207031 14.95556641 C-343.29774218 16.97811181 -345.50777755 18.90381154 -347.78613281 20.80712891 C-358.99924112 30.60992874 -368.0094059 42.48259462 -376.78613281 54.43212891 C-377.19959961 54.98835938 -377.61306641 55.54458984 -378.0390625 56.11767578 C-407.93131166 96.53464694 -425.56879499 148.21694358 -426.78613281 198.43212891 C-426.81191406 199.24520508 -426.83769531 200.05828125 -426.86425781 200.89599609 C-427.69742212 229.85887039 -424.35341278 258.73125703 -415.78613281 286.43212891 C-415.60179687 287.06183594 -415.60179687 287.06183594 -414.66894531 290.24853516 C-404.61873767 324.20092202 -386.74350105 355.56624815 -363.78613281 382.43212891 C-363.14933594 383.18107422 -362.51253906 383.93001953 -361.85644531 384.70166016 C-351.25735181 396.80607239 -339.80297541 408.93772894 -326.78613281 418.43212891 C-325.70810606 419.25999074 -324.63138462 420.08955388 -323.55566406 420.92041016 C-285.23344081 450.18637354 -235.89304988 470.41313006 -187.21582031 470.63525391 C-186.21769318 470.64095398 -185.21956604 470.64665405 -184.19119263 470.65252686 C-182.08173667 470.66193005 -179.97226633 470.6684921 -177.86279297 470.67236328 C-174.71846875 470.68195402 -171.57483217 470.71297455 -168.43066406 470.74462891 C-150.03400511 470.84155184 -131.91124719 469.09186032 -113.97363281 464.86962891 C-113.43935669 464.74402588 -113.43935669 464.74402588 -110.7355957 464.10839844 C-71.80976342 454.45162812 -34.34937593 434.04620716 -5.11816406 406.61181641 C-3.0991269 404.72467614 -1.03420014 402.94915389 1.08886719 401.18212891 C11.74654179 391.87573411 20.76838202 380.73091515 29.21386719 369.43212891 C29.82488281 368.61744141 30.43589844 367.80275391 31.06542969 366.96337891 C50.95309307 339.44111489 64.15753572 309.021025 73.21386719 276.43212891 C73.519375 275.36349609 73.82488281 274.29486328 74.13964844 273.19384766 C76.5924517 264.09960786 77.94831591 254.75515314 79.21386719 245.43212891 C79.38668213 244.18214111 79.55949707 242.93215332 79.73754883 241.64428711 C81.08902459 231.40239494 81.57610879 221.31964523 81.52636719 210.99462891 C81.52562195 210.60730591 81.52562195 210.60730591 81.52185059 208.6472168 C81.4730833 194.42609452 80.47743465 180.48673638 78.21386719 166.43212891 C78.07464844 165.55782227 77.93542969 164.68351563 77.79199219 163.78271484 C73.42007507 137.39940949 64.63977432 111.98230474 52.21386719 88.33789062 C51.20126935 86.40812043 50.2068581 84.4697054 49.21386719 82.52978516 C37.84838449 60.53153952 22.20456656 41.32264725 5.21386719 23.43212891 C4.42882812 22.60455078 3.64378906 21.77697266 2.83496094 20.92431641 C-2.16992898 15.78512711 -7.48499581 11.16742374 -13.12548828 6.73779297 C-14.30273428 5.81219585 -15.4758318 4.88131129 -16.64599609 3.94677734 C-27.19674049 -4.46582799 -38.0769055 -11.86224126 -49.78613281 -18.56787109 C-50.10686768 -18.75269043 -50.10686768 -18.75269043 -51.72998047 -19.68798828 C-62.02135744 -25.56027017 -72.78828409 -30.18906887 -83.78613281 -34.56787109 C-84.78281982 -34.97207275 -85.77950684 -35.37627441 -86.80639648 -35.79272461 C-133.08219209 -54.17578354 -184.79590419 -54.77893761 -232.78613281 -43.56787109 Z " fill="#020202" transform="translate(457.7861328125,75.56787109375)"/>
<path d="M0 0 C1.36045499 0.01493278 2.72095318 0.02631493 4.08146667 0.03430176 C7.65172417 0.06475826 11.21935166 0.14325229 14.78857422 0.23193359 C18.43485939 0.31397298 22.08157234 0.35035102 25.72851562 0.390625 C32.87607199 0.47626241 40.02184814 0.61268215 47.16796875 0.78125 C47.16796875 3.75125 47.16796875 6.72125 47.16796875 9.78125 C51.12796875 9.78125 55.08796875 9.78125 59.16796875 9.78125 C59.16796875 6.81125 59.16796875 3.84125 59.16796875 0.78125 C67.00709611 0.26764798 74.84219132 -0.12113745 82.69398689 -0.35861778 C86.34294626 -0.47274698 89.98029617 -0.62670853 93.62255859 -0.87841797 C117.09385808 -2.45887105 117.09385808 -2.45887105 123.85083008 2.91491699 C128.35200781 8.13854457 131.31493557 13.9520582 134.02548218 20.25527954 C135.47960126 23.47025111 137.25221497 26.00620488 139.41796875 28.78125 C139.71832031 29.18214844 139.71832031 29.18214844 141.23828125 31.2109375 C141.87507812 32.05914062 142.511875 32.90734375 143.16796875 33.78125 C144.88852524 36.14753931 146.59233469 38.52561416 148.29296875 40.90625 C148.71658691 41.49873535 149.14020508 42.0912207 149.57666016 42.70166016 C152.87320045 47.32971888 156.06845021 52.01857517 159.16796875 56.78125 C138.35828959 66.66059263 117.34053424 73.32968751 94.6496582 77.33569336 C93.06415824 77.62035026 91.48400852 77.93805947 89.91389465 78.29803467 C86.81650916 78.84309823 83.89680254 78.93065136 80.75146484 78.95825195 C80.11162155 78.96466957 80.11162155 78.96466957 76.87362671 78.99714661 C75.47955724 79.00532462 74.08548329 79.0127663 72.69140625 79.01953125 C72.33596552 79.02156901 72.33596552 79.02156901 70.53722 79.03188133 C66.76114448 79.05272054 62.98510487 79.06702133 59.20898438 79.07641602 C56.12316718 79.08520614 53.0378106 79.10591463 49.95214844 79.13793945 C33.24761475 79.30769725 17.397937 79.29154752 1.16796875 74.78125 C-0.95417726 74.33010972 -3.07870767 73.88978441 -5.20703125 73.46875 C-21.06999319 69.71968911 -36.11714304 63.69850514 -50.83203125 56.78125 C-49.55947822 54.0982932 -48.17162276 51.7407283 -46.390625 49.3671875 C-45.89755859 48.70122559 -45.40449219 48.03526367 -44.89648438 47.34912109 C-44.35958984 46.62547363 -43.82269531 45.90182617 -43.26953125 45.15625 C-37.53031089 37.32330143 -32.12828333 29.29170174 -26.83203125 21.15625 C-26.1145874 20.05458496 -25.39714355 18.95291992 -24.65795898 17.81787109 C-18.89089092 8.92615495 -18.89089092 8.92615495 -17.97261047 6.66546631 C-14.2810157 -1.37252266 -7.98770607 -0.25205665 0 0 Z " fill="#020202" transform="translate(229.83203125,462.21875)"/>
<path d="M0 0 C9.1539496 -0.54104814 17.28714253 2.81421541 24.3203125 8.60546875 C29.91461216 13.95603336 33.30995038 20.55412744 34.15625 28.30859375 C34.30510626 40.39572233 31.23874192 47.2940385 23.13671875 56.19921875 C20.76391193 58.27992625 18.80214617 59.26281902 15.8203125 60.23046875 C16.75986704 80.71275762 22.46182147 101.58291658 30.8203125 120.23046875 C31.45303751 121.71172135 32.08443996 123.19353928 32.71484375 124.67578125 C40.31927456 142.32502822 49.68918012 158.7234766 60.8359375 174.37109375 C62.8203125 177.23046875 62.8203125 177.23046875 62.8203125 178.23046875 C55.5603125 178.23046875 48.3003125 178.23046875 40.8203125 178.23046875 C35.97993101 168.3228129 31.36222682 158.47686278 27.4453125 148.16796875 C27.12433594 147.32532471 26.80335938 146.48268066 26.47265625 145.61450195 C24.33609407 139.88714053 22.52395885 134.09949876 20.8203125 128.23046875 C20.65660156 127.69615234 20.65660156 127.69615234 19.828125 124.9921875 C15.28681617 109.17798375 12.68074236 92.56545184 10.8203125 76.23046875 C10.52939809 84.28833606 11.41787271 92.01383219 12.5703125 99.98046875 C12.75368164 101.26034668 12.93705078 102.54022461 13.12597656 103.85888672 C13.67811766 107.65142363 14.24602971 111.44122786 14.8203125 115.23046875 C14.96984375 116.23819336 15.119375 117.24591797 15.2734375 118.28417969 C18.16157651 137.33118903 23.12163006 156.19995688 30.86938477 173.86279297 C31.8203125 176.23046875 31.8203125 176.23046875 31.8203125 178.23046875 C12.3503125 178.23046875 -7.1196875 178.23046875 -27.1796875 178.23046875 C-24.1796875 169.23046875 -24.1796875 169.23046875 -23.00390625 165.84375 C-16.05544773 145.66695464 -11.54880097 125.29331802 -8.1796875 104.23046875 C-8.04546387 103.39741211 -7.91124023 102.56435547 -7.77294922 101.70605469 C-6.52662233 93.80038061 -6.09107755 86.22237045 -6.1796875 78.23046875 C-6.33526123 79.19122314 -6.49083496 80.15197754 -6.65112305 81.1418457 C-18.0221998 150.99423719 -18.0221998 150.99423719 -36.1796875 178.23046875 C-38.33447266 178.57104492 -38.33447266 178.57104492 -40.96875 178.5234375 C-41.90976563 178.51376953 -42.85078125 178.50410156 -43.8203125 178.49414062 C-44.80515625 178.46900391 -45.79 178.44386719 -46.8046875 178.41796875 C-47.79726562 178.40443359 -48.78984375 178.39089844 -49.8125 178.37695312 C-52.26876822 178.34152618 -54.72396035 178.29213071 -57.1796875 178.23046875 C-55.69129965 173.93334899 -53.39581298 170.48131021 -50.8046875 166.79296875 C-32.3605411 139.73063629 -19.37050324 108.36907174 -13.1796875 76.23046875 C-12.88059621 74.74835588 -12.57981527 73.26658297 -12.27734375 71.78515625 C-11.56216938 68.26998779 -10.86520922 64.75155761 -10.1796875 61.23046875 C-10.9221875 60.96234375 -11.6646875 60.69421875 -12.4296875 60.41796875 C-20.67667139 56.85677116 -24.89209338 50.30130068 -28.1796875 42.23046875 C-30.62324409 34.89979897 -30.12074824 25.45457831 -27.29296875 18.2578125 C-23.07619633 10.57884799 -16.17105644 4.65534115 -8.1796875 1.23046875 C-5.44542076 0.54690207 -2.79570954 0.2956037 0 0 Z " fill="#040404" transform="translate(281.1796875,211.76953125)"/>
<path d="M0 0 C4.0174366 2.93993584 6.92802144 6.23764712 9.8125 10.25 C10.21919922 10.80429688 10.62589844 11.35859375 11.04492188 11.9296875 C12.03591711 13.28210453 13.01881466 14.64044907 14 16 C11.71401188 18.30579738 9.43629976 20.60273302 7.03515625 22.7890625 C-14.38851144 42.72792154 -29.06898476 71.58295127 -35 100 C-35.28904551 101.33724326 -35.57810808 102.67448282 -35.8671875 104.01171875 C-43.44410865 139.98340477 -38.43239494 177.95041442 -20 210 C-19.64292969 210.63969727 -19.28585938 211.27939453 -18.91796875 211.93847656 C-12.23940335 223.8737573 -4.15253277 233.95113266 5.34765625 243.80859375 C7 246 7 246 7 250 C5.22418005 252.22554059 3.47577919 254.22082137 1.5 256.25 C0.97535156 256.80429687 0.45070312 257.35859375 -0.08984375 257.9296875 C-1.38441462 259.29487133 -2.69107259 260.64857495 -4 262 C-26.49766058 252.02887649 -41.82791172 216.19116445 -50.25 194.6875 C-53.92720745 184.96891408 -56.38937036 175.25624375 -58 165 C-58.11569336 164.26749023 -58.23138672 163.53498047 -58.35058594 162.78027344 C-65.26718008 116.66280447 -54.43170399 67.28167264 -26.70703125 29.53125 C-18.61121444 18.85724036 -9.60241745 9.32762649 0 0 Z " fill="#296C35" transform="translate(161,105)"/>
<path d="M0 0 C16.67782873 8.33891437 28.68202602 29.23498421 37.05664062 45.20263672 C37.90128789 46.81192584 38.76944808 48.40882279 39.640625 50.00390625 C46.08891161 62.20474327 50.56353629 75.3029541 53.8125 88.6875 C53.9098645 89.0841687 53.9098645 89.0841687 54.40258789 91.09155273 C57.30863063 103.77653808 58.34004366 116.50266177 58.26074219 129.48217773 C58.24998251 131.56588681 58.2607455 133.6487378 58.2734375 135.73242188 C58.28767399 148.16416216 57.09379361 160.35468521 53.75 172.375 C53.53311523 173.16970703 53.31623047 173.96441406 53.09277344 174.78320312 C44.01126205 207.31129086 27.87498432 233.31029876 5 258 C0.08064098 253.88380164 -4.52647956 249.59589638 -9 245 C-7.44780273 241.32731465 -5.18580188 238.92262637 -2.4375 236.0625 C22.87408959 208.92453799 37.55293595 169.16286144 37.25 132.3125 C37.24178223 131.08644043 37.23356445 129.86038086 37.22509766 128.59716797 C36.92509455 104.0840111 31.90011639 82.04677054 21 60 C20.68836914 59.3498291 20.37673828 58.6996582 20.05566406 58.02978516 C13.05108424 43.48323711 3.34892041 31.04322756 -7.8203125 19.453125 C-10 17 -10 17 -12 13 C-8.04 8.71 -4.08 4.42 0 0 Z " fill="#296C35" transform="translate(408,109)"/>
<path d="M0 0 C17.03073033 9.34903728 30.12354591 34.76043735 35.44873047 52.99169922 C41.32689686 74.40613533 42.64715792 97.38320481 37 119 C36.79503906 119.86496094 36.59007812 120.72992188 36.37890625 121.62109375 C31.80975168 138.90441755 22.434984 154.45357705 11 168 C10.44054687 168.70511719 9.88109375 169.41023437 9.3046875 170.13671875 C8.79164063 170.77222656 8.27859375 171.40773438 7.75 172.0625 C7.31171875 172.61035156 6.8734375 173.15820312 6.421875 173.72265625 C4.68914811 175.27925431 3.26896957 175.60729373 1 176 C0.54109375 175.46890625 0.0821875 174.9378125 -0.390625 174.390625 C-3.49493717 170.81675301 -6.58181312 167.28145941 -10 164 C-8.51736128 160.56120966 -6.54616114 158.35137089 -3.9375 155.6875 C15.35516828 134.4748551 20.90159875 107.49880364 20.13183594 79.65429688 C18.90641655 54.98251986 5.63687378 31.64479963 -12 15 C-10.38462556 11.10082032 -7.72075127 8.28706228 -4.875 5.25 C-4.40707031 4.74339844 -3.93914062 4.23679688 -3.45703125 3.71484375 C-2.30873459 2.47280859 -1.15491328 1.23588506 0 0 Z " fill="#2A6C35" transform="translate(372,151)"/>
<path d="M0 0 C4.08332902 1.55466197 6.08208993 4.25087844 8.75 7.625 C9.54921875 8.62789062 10.3484375 9.63078125 11.171875 10.6640625 C11.77515625 11.43492187 12.3784375 12.20578125 13 13 C11.46704712 16.70957657 9.2165048 18.894435 6.3125 21.625 C-5.72563639 33.49042282 -13.88079367 48.66247152 -18 65 C-18.14888672 65.51369141 -18.14888672 65.51369141 -18.90234375 68.11328125 C-25.53771899 93.64571594 -19.61613126 120.56376776 -6.83984375 143.16796875 C-3.34973936 148.54021012 0.68389798 153.49637927 4.73535156 158.45214844 C6.50741516 160.62104481 8.25339176 162.81058967 10 165 C5.66666667 169.33333333 1.33333333 173.66666667 -3 178 C-26.81899615 156.29824795 -39.72505919 125.72625883 -41.2421875 93.75390625 C-42.11437945 62.46449192 -30.93056412 32.19072247 -9.44775391 9.34960938 C-6.37263526 6.1541394 -3.21912715 3.05101026 0 0 Z " fill="#2A6C36" transform="translate(196,150)"/>
<path d="M0 0 C1.61089244 1.68649389 3.14123731 3.45064334 4.625 5.25 C5.44226563 6.22453125 6.25953125 7.1990625 7.1015625 8.203125 C9 11 9 11 9 15 C7.6796875 16.71875 7.6796875 16.71875 5.875 18.5 C-4.5360826 29.86138425 -6.61421327 43.149866 -6.24609375 57.9453125 C-5.77683978 68.09147054 -1.34877769 78.92267811 5.875 86.1875 C6.57625 86.785625 7.2775 87.38375 8 88 C6.62815653 92.06498881 4.77931541 94.67396561 1.875 97.8125 C1.15054688 98.60269531 0.42609375 99.39289063 -0.3203125 100.20703125 C-0.87460938 100.79871094 -1.42890625 101.39039063 -2 102 C-11.86961549 97.67658437 -17.20527353 86.57632313 -21.20166016 77.11279297 C-27.28175347 61.02192827 -26.944494 41.16502493 -20.5234375 25.3671875 C-17.0404247 17.75850568 -12.58781514 11.20998784 -7 5 C-6.48953125 4.43152344 -5.9790625 3.86304688 -5.453125 3.27734375 C-2.34923398 0 -2.34923398 0 0 0 Z " fill="#2A6A36" transform="translate(230,189)"/>
<path d="M0 0 C10.36179611 7.71623115 16.8761156 18.90989715 21 31 C21.36480469 32.010625 21.72960937 33.02125 22.10546875 34.0625 C25.69522563 47.03799382 24.63162802 64.78983306 19 77 C18.49082031 78.16402344 17.98164063 79.32804687 17.45703125 80.52734375 C14.09743672 87.88785645 10.10117487 95.54039198 4 101 C0 101 0 101 -2.578125 98.8125 C-3.45984375 97.884375 -4.3415625 96.95625 -5.25 96 C-6.14203125 95.071875 -7.0340625 94.14375 -7.953125 93.1875 C-8.62859375 92.465625 -9.3040625 91.74375 -10 91 C-8.78502901 87.64299485 -7.49023479 85.15339037 -5.1875 82.4375 C-1.31392903 77.427429 0.86437994 71.92332356 3 66 C3.12439453 65.65517578 3.12439453 65.65517578 3.75390625 63.91015625 C7.43170355 51.74513442 4.95430914 38.32307068 -0.75 27.25 C-3.6090321 22.30057005 -7.03117485 18.0979881 -11 14 C-9.42219077 10.28954753 -7.09296752 7.70093616 -4.375 4.75 C-3.55773437 3.85796875 -2.74046875 2.9659375 -1.8984375 2.046875 C-1.27195312 1.37140625 -0.64546875 0.6959375 0 0 Z " fill="#2A6A36" transform="translate(339,189)"/>
<path d="M0 0 C17.16 0 34.32 0 52 0 C52 3.3 52 6.6 52 10 C39.13 10 26.26 10 13 10 C13 12.64 13 15.28 13 18 C24.88 18 36.76 18 49 18 C49 21.3 49 24.6 49 28 C37.12 28 25.24 28 13 28 C13 30.97 13 33.94 13 37 C26.2 37 39.4 37 53 37 C53 40.3 53 43.6 53 47 C35.51 47 18.02 47 0 47 C0 31.49 0 15.98 0 0 Z " fill="#040404" transform="translate(200,73)"/>
<path d="M0 0 C16.17 0 32.34 0 49 0 C49 3.3 49 6.6 49 10 C36.79 10 24.58 10 12 10 C11.67 12.64 11.34 15.28 11 18 C11.90766113 17.97905273 12.81532227 17.95810547 13.75048828 17.93652344 C17.13877642 17.86809067 20.5263235 17.81807705 23.91503906 17.78027344 C25.37772252 17.76023668 26.84032666 17.73299896 28.30273438 17.69824219 C30.4129601 17.64936775 32.52212136 17.62695341 34.6328125 17.609375 C35.90012207 17.58842773 37.16743164 17.56748047 38.47314453 17.54589844 C43.42449743 18.18341169 46.45172394 20.38001431 49.85546875 23.94140625 C52.33312996 28.39781395 51.44640908 33.99115914 50.375 38.8125 C47.86283888 42.80911996 44.51200778 45.49599741 40 47 C38.54218278 47.08630926 37.08072526 47.11770981 35.62036133 47.11352539 C34.73967484 47.11344986 33.85898834 47.11337433 32.95161438 47.11329651 C32.00465195 47.10813522 31.05768951 47.10297394 30.08203125 47.09765625 C29.10965012 47.0962413 28.13726898 47.09482635 27.13542175 47.09336853 C24.02774996 47.08776817 20.92015004 47.07521562 17.8125 47.0625 C15.70638125 47.05748505 13.60026137 47.05292213 11.49414062 47.04882812 C6.32939936 47.03779862 1.16471187 47.02053375 -4 47 C-4 43.7 -4 40.4 -4 37 C9.53 36.67 23.06 36.34 37 36 C37 33.69 37 31.38 37 29 C33.78096915 27.39048457 30.25161168 27.75765252 26.7109375 27.68359375 C25.89251373 27.66281265 25.07408997 27.64203156 24.23086548 27.62062073 C21.61233034 27.55515188 18.99369361 27.49625274 16.375 27.4375 C14.60155193 27.39431224 12.82811419 27.35069786 11.0546875 27.30664062 C6.70322954 27.19947324 2.35166923 27.09819831 -2 27 C-1.8562497 24.56236201 -1.71002168 22.1249105 -1.5625 19.6875 C-1.52318359 19.01654297 -1.48386719 18.34558594 -1.44335938 17.65429688 C-1.08301107 11.75012844 -0.53632549 5.89958041 0 0 Z " fill="#B42B23" transform="translate(327,73)"/>
<path d="M0 0 C38.39418731 -2.60394634 38.39418731 -2.60394634 46.8984375 3.0234375 C50.29154577 6.00010485 52.99440668 9.40640628 55.56933594 13.1015625 C57.83196437 16.10398549 60.53046933 18.13850851 63.5 20.4375 C64.3765625 21.13746094 65.253125 21.83742188 66.15625 22.55859375 C66.7646875 23.03425781 67.373125 23.50992187 68 24 C66.64174159 27.17933711 65.29300129 28.8242233 62.47265625 30.8046875 C61.7674585 31.30323242 61.06226074 31.80177734 60.33569336 32.31542969 C59.58553955 32.83008789 58.83538574 33.34474609 58.0625 33.875 C57.30138916 34.40512695 56.54027832 34.93525391 55.75610352 35.48144531 C50.03763813 39.41338115 44.23200941 42.93110551 38 46 C32.74224396 40.86515254 27.76233505 35.59550699 23 30 C22.17628906 29.04222656 21.35257812 28.08445312 20.50390625 27.09765625 C15.51805081 21.27738555 10.63774754 15.37945265 5.875 9.375 C5.4015918 8.78315918 4.92818359 8.19131836 4.44042969 7.58154297 C2.45819207 5.06022449 1.02284513 3.06853539 0 0 Z " fill="#050505" transform="translate(369,463)"/>
<path d="M0 0 C1.72974441 0.00015918 3.45949355 0.0058569 5.18920898 0.01586914 C6.09783188 0.01728409 7.00645477 0.01869904 7.94261169 0.02015686 C10.85687494 0.02577346 13.77106254 0.03832874 16.68530273 0.05102539 C18.65600475 0.05603825 20.62670797 0.06060153 22.59741211 0.06469727 C27.43923832 0.07574828 32.28100768 0.09302401 37.12280273 0.11352539 C33.63376897 5.52073322 30.04970645 10.64693364 25.81030273 15.48852539 C24.84460601 16.60888448 23.87977462 17.72998999 22.91577148 18.85180664 C22.44316895 19.40046387 21.97056641 19.94912109 21.48364258 20.5144043 C19.4837519 22.86447318 17.55591175 25.27091848 15.62280273 27.67602539 C14.12962865 29.49415283 12.62920758 31.30634508 11.12280273 33.11352539 C10.6684082 33.66057129 10.21401367 34.20761719 9.74584961 34.77124023 C8.3068557 36.48573466 6.84381224 38.17646755 5.37280273 39.86352539 C4.92485352 40.40178955 4.4769043 40.94005371 4.01538086 41.49462891 C2.70092773 42.97290039 2.70092773 42.97290039 0.12280273 45.11352539 C-4.60002941 45.33842216 -8.31308481 42.13732453 -12.06469727 39.55102539 C-12.72091064 39.10645996 -13.37712402 38.66189453 -14.05322266 38.20385742 C-19.55006054 34.43709463 -24.77944468 30.40763227 -29.87719727 26.11352539 C-28.27944808 21.90944783 -25.14754698 19.34531269 -21.87719727 16.42602539 C-21.30066406 15.90290771 -20.72413086 15.37979004 -20.13012695 14.84082031 C-18.38435716 13.2591683 -16.63145279 11.6857544 -14.87719727 10.11352539 C-13.86121823 9.19725113 -12.84556989 8.28061 -11.83032227 7.36352539 C-10.12462538 5.82544034 -8.41660188 4.28992791 -6.70532227 2.75805664 C-3.76180231 0.11014659 -3.76180231 0.11014659 0 0 Z " fill="#050505" transform="translate(161.877197265625,462.886474609375)"/>
<path d="M0 0 C0 9.24 0 18.48 0 28 C2.97 28 5.94 28 9 28 C9 31.3 9 34.6 9 38 C6.03 38 3.06 38 0 38 C0 40.97 0 43.94 0 47 C-4.29 47 -8.58 47 -13 47 C-13 44.03 -13 41.06 -13 38 C-24.88 38 -36.76 38 -49 38 C-49 26 -49 26 -45.625 22.1875 C-44.11217645 21.08431948 -42.56805181 20.02315975 -41 19 C-39.33659137 17.8316515 -37.67384339 16.66236192 -36.01171875 15.4921875 C-35.16915527 14.91694336 -34.3265918 14.34169922 -33.45849609 13.74902344 C-31.1159249 12.0824713 -28.9459931 10.32151907 -26.76953125 8.4453125 C-17.51680446 0.58862701 -12.19947707 -1.40763197 0 0 Z " fill="#B42922" transform="translate(308,73)"/>
<path d="M0 0 C3.856875 -0.061875 7.71375 -0.12375 11.6875 -0.1875 C12.29122437 -0.20115601 12.29122437 -0.20115601 15.34643555 -0.27026367 C16.308479 -0.27775635 17.27052246 -0.28524902 18.26171875 -0.29296875 C19.24100342 -0.3086792 20.22028809 -0.32438965 21.22924805 -0.34057617 C24.49180859 0.06045229 26.34400436 1.10006728 29 3 C31.59744852 6.46849621 31.2998867 10.16215694 31.3125 14.375 C31.32925781 15.66148437 31.34601563 16.94796875 31.36328125 18.2734375 C30.97553745 22.25093845 30.11953741 24.63455185 28 28 C24.55366118 30.29755922 23.28931609 30.23643976 19.23828125 30.1953125 C18.73445923 30.19281494 18.73445923 30.19281494 16.18481445 30.18017578 C15.54588257 30.17107178 15.54588257 30.17107178 12.3125 30.125 C8.249375 30.08375 4.18625 30.0425 0 30 C0 20.1 0 10.2 0 0 Z " fill="#0C0C0C" transform="translate(355,410)"/>
<path d="M0 0 C1.00675781 -0.00515625 2.01351563 -0.0103125 3.05078125 -0.015625 C3.57349609 -0.00789063 3.57349609 -0.00789063 6.21875 0.03125 C7.26417969 0.01578125 8.30960937 0.0003125 9.38671875 -0.015625 C10.39347656 -0.01046875 11.40023438 -0.0053125 12.4375 0 C12.89608398 0.00225586 12.89608398 0.00225586 15.21679688 0.01367188 C18.52477767 0.69799265 19.70537488 1.85088665 21.71875 4.53125 C22.23632812 6.83374023 22.23632812 6.83374023 22.25 9.33984375 C22.25515625 10.25185547 22.2603125 11.16386719 22.265625 12.10351562 C22.25015625 13.04904297 22.2346875 13.99457031 22.21875 14.96875 C22.23421875 15.91041016 22.2496875 16.85207031 22.265625 17.82226562 C22.2428337 21.85917494 21.98023077 24.90945495 20.40625 28.65234375 C15.99645027 31.7353578 11.46098863 31.25320879 6.21875 31.15625 C5.69603516 31.16591797 5.69603516 31.16591797 3.05078125 31.21484375 C-4.37143601 31.16732635 -4.37143601 31.16732635 -7.96875 28.65234375 C-9.89644849 24.06832264 -9.86213989 19.892922 -9.78125 14.96875 C-9.79671875 14.02322266 -9.8121875 13.07769531 -9.828125 12.10351562 C-9.82296875 11.19150391 -9.8178125 10.27949219 -9.8125 9.33984375 C-9.80798828 8.51282959 -9.80347656 7.68581543 -9.79882812 6.83374023 C-8.59716387 1.48803475 -5.10052464 0.02509042 0 0 Z " fill="#050505" transform="translate(424.28125,409.46875)"/>
<path d="M0 0 C2.0315625 -0.0309375 2.0315625 -0.0309375 12.3125 -0.1875 C13.59036377 -0.21481201 14.86822754 -0.24212402 16.18481445 -0.27026367 C17.1924585 -0.27775635 18.20010254 -0.28524902 19.23828125 -0.29296875 C20.26993408 -0.3086792 21.30158691 -0.32438965 22.36450195 -0.34057617 C25 0 25 0 26.84179688 1.36767578 C28.46612049 3.6569312 28.29780615 5.28850468 28.1875 8.0625 C28.16042969 8.94035156 28.13335937 9.81820313 28.10546875 10.72265625 C28.07066406 11.47417969 28.03585938 12.22570312 28 13 C28 13.66 28 14.32 28 15 C28.33 15.33 28.66 15.66 29 16 C29.23828125 18.3984375 29.23828125 18.3984375 29.3125 21.375 C29.34988281 22.35210937 29.38726562 23.32921875 29.42578125 24.3359375 C29 27 29 27 27.33959961 28.64819336 C24.40307518 30.34489959 22.51865663 30.34467332 19.140625 30.29296875 C18.13547852 30.28547607 17.13033203 30.2779834 16.09472656 30.27026367 C14.8259668 30.24295166 13.55720703 30.21563965 12.25 30.1875 C8.2075 30.125625 4.165 30.06375 0 30 C0 20.1 0 10.2 0 0 Z " fill="#060606" transform="translate(217,410)"/>
<path d="M0 0 C4.0425 -0.0825 8.085 -0.165 12.25 -0.25 C13.51875977 -0.28641602 14.78751953 -0.32283203 16.09472656 -0.36035156 C17.09987305 -0.3703418 18.10501953 -0.38033203 19.140625 -0.390625 C20.16704102 -0.41157227 21.19345703 -0.43251953 22.25097656 -0.45410156 C25.7151044 0.11812559 26.86608515 1.26883967 29 4 C29.4609375 6.4375 29.4609375 6.4375 29.375 9 C29.36855469 9.4228125 29.36855469 9.4228125 29.3359375 11.5625 C28.98678368 14.09589516 28.27331535 15.79971107 27 18 C27.33 18.33 27.66 18.66 28 19 C28.07226502 20.85287502 28.0838122 22.70833878 28.0625 24.5625 C28.05347656 25.57441406 28.04445313 26.58632813 28.03515625 27.62890625 C28.02355469 28.41136719 28.01195312 29.19382812 28 30 C26.35 30 24.7 30 23 30 C22.77213542 27.94921875 22.54427083 25.8984375 22.31640625 23.84765625 C22 22 22 22 21 21 C18.30764224 20.76321284 15.63501844 20.57801975 12.9375 20.4375 C12.55819336 20.4159082 12.55819336 20.4159082 10.63867188 20.30664062 C8.75934562 20.20026367 6.87969756 20.09960066 5 20 C5 23.3 5 26.6 5 30 C3.35 30 1.7 30 0 30 C0 20.1 0 10.2 0 0 Z " fill="#050505" transform="translate(273,410)"/>
<path d="M0 0 C1.65 0 3.3 0 5 0 C12 17.02030457 12 17.02030457 12 22 C12.66 22 13.32 22 14 22 C14.12375 21.3915625 14.12375 21.3915625 14.75 18.3125 C16.12037065 12.09618097 18.0701587 6.06120058 20 0 C22.31 0 24.62 0 27 0 C34 14.7106599 34 14.7106599 34 22 C34.66 22 35.32 22 36 22 C36.2475 20.7625 36.495 19.525 36.75 18.25 C40.16104294 2.83895706 40.16104294 2.83895706 43 0 C44.66617115 -0.04063832 46.33388095 -0.042721 48 0 C46.40567632 8.26149542 43.72635054 16.05688257 41 24 C40.33130047 25.99932123 39.66389978 27.99907983 39 30 C36.36 30 33.72 30 31 30 C29.99064871 27.1071271 28.99231256 24.21121485 28 21.3125 C27.85691406 20.90418945 27.85691406 20.90418945 27.1328125 18.83789062 C24.57733051 11.32355667 24.57733051 11.32355667 25 7 C24.34 7 23.68 7 23 7 C22.88785156 7.98097656 22.77570313 8.96195312 22.66015625 9.97265625 C22.04422965 14.28414248 20.78672896 18.30666736 19.4375 22.4375 C19.20353516 23.16904297 18.96957031 23.90058594 18.72851562 24.65429688 C18.15732778 26.43780179 17.57936877 28.21913583 17 30 C14.36 30 11.72 30 9 30 C7.71248643 26.21165112 6.43090931 22.42135154 5.15478516 18.62915039 C4.71988772 17.33953841 4.28337578 16.05046971 3.84521484 14.76196289 C3.21547426 12.9091547 2.59202743 11.05421111 1.96875 9.19921875 C1.59169922 8.08377686 1.21464844 6.96833496 0.82617188 5.8190918 C0 3 0 3 0 0 Z " fill="#0E0E0E" transform="translate(121,410)"/>
<path d="M0 0 C2.97 0 5.94 0 9 0 C10.8537662 4.11067345 12.70511632 8.22242283 14.55419922 12.33520508 C15.18406326 13.73524619 15.81459584 15.13498674 16.44580078 16.53442383 C17.35102918 18.5417003 18.25387683 20.5500324 19.15625 22.55859375 C19.44060913 23.18777206 19.72496826 23.81695038 20.01794434 24.4651947 C22 28.88612829 22 28.88612829 22 30 C20.02 30 18.04 30 16 30 C15.34 28.02 14.68 26.04 14 24 C8.06 24.33 2.12 24.66 -4 25 C-4.33 25.825 -4.33 25.825 -6 30 C-7.98 30 -9.96 30 -12 30 C-11.35990983 26.03526237 -10.1301723 22.7055586 -8.49609375 19.04296875 C-8.00302734 17.93115234 -7.50996094 16.81933594 -7.00195312 15.67382812 C-6.48568359 14.52333984 -5.96941406 13.37285156 -5.4375 12.1875 C-4.91736328 11.01767578 -4.39722656 9.84785156 -3.86132812 8.64257812 C-2.57872888 5.75967157 -1.29147717 2.87893769 0 0 Z " fill="#0A0A0A" transform="translate(324,410)"/>
<path d="M0 0 C0.33 0 0.66 0 1 0 C1.09498779 0.74757568 1.18997559 1.49515137 1.2878418 2.26538086 C4.23207294 25.1639857 7.25016207 48.1468534 15 70 C15.21736816 70.62567871 15.43473633 71.25135742 15.65869141 71.89599609 C18.94134327 81.29642554 22.84889535 90.34927189 27.10449219 99.35058594 C27.47993164 100.15786133 27.85537109 100.96513672 28.2421875 101.796875 C28.5810498 102.51198242 28.91991211 103.22708984 29.26904297 103.96386719 C30 106 30 106 30 110 C27.36 110 24.72 110 22 110 C21.83693359 109.57138672 21.83693359 109.57138672 21.01171875 107.40234375 C20.57472656 106.25894531 20.13773437 105.11554688 19.6875 103.9375 C19.25824219 102.81214844 18.82898438 101.68679688 18.38671875 100.52734375 C17.48547467 98.23488346 16.53326967 95.96158674 15.5234375 93.71484375 C13.55118946 89.15485384 12.27176972 84.40243634 10.9375 79.625 C10.68162109 78.73039062 10.42574219 77.83578125 10.16210938 76.9140625 C7.72161517 68.2813632 5.84375385 59.69020966 4.5625 50.8125 C4.50042358 50.38493408 4.50042358 50.38493408 4.1862793 48.22119141 C3.92416573 46.40792425 3.66353233 44.59444258 3.40429688 42.78076172 C2.99973731 39.99819324 2.57177247 37.21996638 2.140625 34.44140625 C0.3932489 22.8675735 -0.3900304 11.70091214 0 0 Z " fill="#F0F0F0" transform="translate(291,280)"/>
<path d="M0 0 C4.95 0 9.9 0 15 0 C15 10.23 15 20.46 15 31 C9.39 31 3.78 31 -2 31 C-1.85827078 27.33313346 -1.71174645 23.66656198 -1.5625 20 C-1.52318359 18.97003906 -1.48386719 17.94007813 -1.44335938 16.87890625 C-1.20814561 11.19758925 -0.80518623 5.62953732 0 0 Z " fill="#F2C118" transform="translate(276,492)"/>
<path d="M0 0 C0.33 0 0.66 0 1 0 C2.57377796 28.15313906 -4.47389942 57.52018168 -13.3671875 84.07177734 C-14.18737164 86.57093412 -14.90965943 89.09409395 -15.625 91.625 C-16.99292648 96.27758827 -18.91884567 100.62640664 -21 105 C-23.64 105 -26.28 105 -29 105 C-28.45536973 100.83567319 -26.93430125 97.40544706 -25.2199707 93.62158203 C-14.12165969 69.08403804 -7.41686887 44.44444112 -3 18 C-2.65828432 16.01680078 -2.31590232 14.03371617 -1.97265625 12.05078125 C-1.28569098 8.03815126 -0.62897226 4.02211207 0 0 Z " fill="#F1F1F1" transform="translate(275,285)"/>
<path d="M0 0 C8.58 0 17.16 0 26 0 C26 1.65 26 3.3 26 5 C19.4 5 12.8 5 6 5 C6 7.31 6 9.62 6 12 C12.27 12 18.54 12 25 12 C25 13.65 25 15.3 25 17 C18.4 17 11.8 17 5 17 C5 19.64 5 22.28 5 25 C11.93 25 18.86 25 26 25 C26 26.65 26 28.3 26 30 C17.42 30 8.84 30 0 30 C0 20.1 0 10.2 0 0 Z " fill="#090909" transform="translate(180,410)"/>
<path d="M0 0 C2.91714801 -0.27570606 5.5886826 -0.3722561 8.5 -0.3125 C8.89251953 -0.31411133 8.89251953 -0.31411133 10.87890625 -0.32226562 C16.73296131 -0.26703869 16.73296131 -0.26703869 19 2 C19.22555081 4.52792663 19.32438591 6.91055576 19.3125 9.4375 C19.32861328 10.11876953 19.34472656 10.80003906 19.36132812 11.50195312 C19.36404109 14.27188793 19.27789969 16.48449091 17.94921875 18.94921875 C14.90860038 20.58834969 11.8640868 20.43267006 8.5 20.375 C7.82324219 20.38660156 7.14648438 20.39820313 6.44921875 20.41015625 C3.67933648 20.39376641 1.49600603 20.27633202 -0.94921875 18.9140625 C-2.57513699 15.95235269 -2.35781281 13.34617689 -2.3125 10 C-2.30863281 8.7625 -2.30476563 7.525 -2.30078125 6.25 C-2 3 -2 3 0 0 Z " fill="#CECECE" transform="translate(422,415)"/>
<path d="M0 0 C2.578125 -0.061875 5.15625 -0.12375 7.8125 -0.1875 C8.21650024 -0.20115601 8.21650024 -0.20115601 10.26098633 -0.27026367 C13.12619051 -0.30369285 15.43661109 -0.30268345 17.9921875 1.0703125 C19.55596507 4.06452227 19.35750491 6.71482696 19.3125 10.0625 C19.30863281 11.31160156 19.30476563 12.56070312 19.30078125 13.84765625 C19 17 19 17 17 19 C14.08274582 19.14557157 11.28685195 19.18598967 8.375 19.125 C6.993125 19.104375 6.993125 19.104375 0 19 C0 12.73 0 6.46 0 0 Z " fill="#D4D4D4" transform="translate(361,415)"/>
<path d="M0 0 C0 5.61 0 11.22 0 17 C-6.93 17 -13.86 17 -21 17 C-15.36731938 11.36731938 -15.36731938 11.36731938 -12.265625 8.88671875 C-11.60949219 8.36142578 -10.95335937 7.83613281 -10.27734375 7.29492188 C-9.60832031 6.76447266 -8.93929688 6.23402344 -8.25 5.6875 C-7.56550781 5.13771484 -6.88101562 4.58792969 -6.17578125 4.02148438 C-1.13019216 0 -1.13019216 0 0 0 Z " fill="#F9EFEF" transform="translate(296,84)"/>
<path d="M0 0 C2.81256281 -0.02684312 5.62487241 -0.04676188 8.4375 -0.0625 C9.23994141 -0.07087891 10.04238281 -0.07925781 10.86914062 -0.08789062 C12.91295221 -0.0965143 14.95683902 -0.0522815 17 0 C18 1 18 1 18.09765625 2.84765625 C18.06510417 4.8984375 18.03255208 6.94921875 18 9 C14.81175432 10.59412284 11.37103338 10.10174735 7.875 10.0625 C7.12089844 10.05798828 6.36679687 10.05347656 5.58984375 10.04882812 C3.72652873 10.03703499 1.86325445 10.01909942 0 10 C0 6.7 0 3.4 0 0 Z " fill="#CCCCCC" transform="translate(278,415)"/>
<path d="M0 0 C1.65 0 3.3 0 5 0 C5 9.9 5 19.8 5 30 C3.35 30 1.7 30 0 30 C0 20.1 0 10.2 0 0 Z " fill="#010101" transform="translate(398,410)"/>
<path d="M0 0 C2.97922593 -0.02683987 5.95821295 -0.04676037 8.9375 -0.0625 C9.78763672 -0.07087891 10.63777344 -0.07925781 11.51367188 -0.08789062 C12.32255859 -0.09111328 13.13144531 -0.09433594 13.96484375 -0.09765625 C14.7137085 -0.10289307 15.46257324 -0.10812988 16.23413086 -0.11352539 C18 0 18 0 19 1 C19.1875 3.4375 19.1875 3.4375 19 6 C17 8 17 8 13.0859375 8.1953125 C11.51550649 8.18200376 9.94513779 8.15813602 8.375 8.125 C7.57320312 8.11597656 6.77140625 8.10695313 5.9453125 8.09765625 C3.96341477 8.07406223 1.98167019 8.03819065 0 8 C0 5.36 0 2.72 0 0 Z " fill="#C7C7C7" transform="translate(222,427)"/>
<path d="M0 0 C0.825 0.33 0.825 0.33 5 2 C5 9.26 5 16.52 5 24 C3.68 24.33 2.36 24.66 1 25 C-1.50029657 21.24955515 -1.23646948 19.21957824 -1.1875 14.75 C-1.18427734 14.10804688 -1.18427734 14.10804688 -1.16796875 10.859375 C-1.0064078 7.14723029 -0.59278744 3.66105522 0 0 Z " fill="#EABA17" transform="translate(281,359)"/>
<path d="M0 0 C2.64590014 -0.02684679 5.29153096 -0.04676357 7.9375 -0.0625 C8.69224609 -0.07087891 9.44699219 -0.07925781 10.22460938 -0.08789062 C12.14994313 -0.09652441 14.07535581 -0.05224333 16 0 C17 1 17 1 17.125 3.5 C17 6 17 6 16 7 C13.30345146 7.07319621 10.63308542 7.09242537 7.9375 7.0625 C7.17888672 7.05798828 6.42027344 7.05347656 5.63867188 7.04882812 C3.75908129 7.0370068 1.87953101 7.01907078 0 7 C0 4.69 0 2.38 0 0 Z " fill="#D3D3D3" transform="translate(223,415)"/>
<path d="M0 0 C3.96 0 7.92 0 12 0 C12 2.97 12 5.94 12 9 C8.04 9 4.08 9 0 9 C0 6.03 0 3.06 0 0 Z " fill="#F4C422" transform="translate(277,463)"/>
<path d="M0 0 C3.16277272 1.58138636 3.43093689 4.32596051 4.625 7.5625 C5.07101562 8.76003906 5.51703125 9.95757812 5.9765625 11.19140625 C6.31429688 12.11824219 6.65203125 13.04507812 7 14 C3.04 14 -0.92 14 -5 14 C-4.23539233 10.17696167 -3.52385218 7.61606762 -1.9375 4.1875 C-1.75638672 3.79240234 -1.75638672 3.79240234 -0.83984375 1.79296875 C-0.56269531 1.20128906 -0.28554688 0.60960937 0 0 Z " fill="#CCCCCC" transform="translate(328,415)"/>
<path d="M0 0 C0.99 0 1.98 0 3 0 C3.58445472 5.4896997 4.08716736 10.97997349 4.25 16.5 C4.27578125 17.2940625 4.3015625 18.088125 4.328125 18.90625 C3.92115186 21.50312625 2.99634772 22.36089345 1 24 C-0.25248502 21.49502996 -0.11374406 19.79146726 -0.09765625 16.9921875 C-0.09443359 16.00605469 -0.09121094 15.01992188 -0.08789062 14.00390625 C-0.07951172 12.97136719 -0.07113281 11.93882812 -0.0625 10.875 C-0.05798828 9.83472656 -0.05347656 8.79445313 -0.04882812 7.72265625 C-0.03701952 5.14838038 -0.02055075 2.57421854 0 0 Z " fill="#E7B817" transform="translate(282,298)"/>
<path d="M0 0 C1.65 0 3.3 0 5 0 C5 4.29 5 8.58 5 13 C3.35 13 1.7 13 0 13 C0 8.71 0 4.42 0 0 Z " fill="#E4B617" transform="translate(281,334)"/>
<path d="M0 0 C0.33 0 0.66 0 1 0 C1.18451025 16.70842825 1.18451025 16.70842825 0 25 C-1.546875 24.0234375 -1.546875 24.0234375 -3 22 C-2.91707314 19.09163666 -2.68416665 16.48085172 -2.25 13.625 C-2.14945312 12.86960937 -2.04890625 12.11421875 -1.9453125 11.3359375 C-1.42605113 7.52802075 -0.80864486 3.75870113 0 0 Z " fill="#D8D8D8" transform="translate(275,285)"/>
</svg>
